<?xml version="1.0" encoding="UTF-8" standalone="no"?><!DOCTYPE svg PUBLIC "-//W3C//DTD SVG 1.1//EN" "http://www.w3.org/Graphics/SVG/1.1/DTD/svg11.dtd"><svg width="100%" height="100%" viewBox="0 0 1800 393" version="1.1" xmlns="http://www.w3.org/2000/svg" xmlns:xlink="http://www.w3.org/1999/xlink" xml:space="preserve" xmlns:serif="http://www.serif.com/" style="fill-rule:evenodd;clip-rule:evenodd;stroke-linejoin:round;stroke-miterlimit:2;"><path d="M21.866,0l191.601,0c-10.501,0 -10.43,3.5 -10.43,14.018l-0,122.811l-132.318,0c-10.523,0 -13.339,9.45 -13.339,19.955l-0,76.236c-0,10.518 2.82,22.983 13.339,22.983l132.318,-0l-0,115.029c-0,10.505 -0.071,21.8 10.43,21.8l-191.601,-0c-15.868,-0 -21.866,-13.692 -21.866,-24.907l0,-352.816c-0,-11.212 5.998,-15.109 21.866,-15.109Z" style="fill:#1b6dc1;fill-rule:nonzero;"/><path d="M496.098,0l-191.618,0c10.505,0 13.317,3.5 13.317,14.018l-0,122.811l129.44,0c10.518,0 16.216,9.45 16.216,19.955l0,76.236c0,10.518 -5.698,22.983 -16.216,22.983l-129.44,-0l-0,115.029c-0,10.505 -2.812,21.8 -13.321,21.8l191.622,-0c15.859,-0 24.735,-13.692 24.735,-24.907l0,-352.816c0,-11.212 -8.876,-15.109 -24.735,-15.109Z" style="fill:#1b6dc1;fill-rule:nonzero;"/><path d="M853.667,179.292l-0,-125c-0,-4.389 1.236,-7.653 3.708,-9.792c2.472,-2.139 5.569,-3.208 9.292,-3.208c4.944,-0 8.75,0.875 11.416,2.625c2.667,1.722 5.598,5.444 8.792,11.166l24.583,44.834l24.625,-44.834c3.195,-5.722 6.153,-9.444 8.875,-11.166c2.75,-1.75 6.584,-2.625 11.5,-2.625c3.75,-0 6.848,1.069 9.292,3.208c2.472,2.139 3.708,5.403 3.708,9.792l0,125c0,2.527 -1.291,4.527 -3.875,6c-2.611,1.472 -5.652,2.208 -9.125,2.208c-3.583,0 -6.652,-0.736 -9.208,-2.208c-2.528,-1.473 -3.792,-3.473 -3.792,-6l0,-86l-23.375,41.625c-1.889,3.444 -4.833,5.166 -8.833,5.166c-3.861,0 -6.722,-1.722 -8.583,-5.166l-23,-43.209l-0,87.584c-0,2.527 -1.306,4.527 -3.917,6c-2.583,1.472 -5.611,2.208 -9.083,2.208c-3.611,0 -6.681,-0.736 -9.209,-2.208c-2.527,-1.473 -3.791,-3.473 -3.791,-6Zm139.791,-0l0,-129.792c0,-2.528 1.139,-4.528 3.417,-6c2.25,-1.472 4.917,-2.208 8,-2.208l71.208,-0c2.667,-0 4.695,1.139 6.084,3.416c1.389,2.25 2.083,4.848 2.083,7.792c-0,3.194 -0.722,5.931 -2.167,8.208c-1.472,2.25 -3.472,3.375 -6,3.375l-56.625,0l0,40l30.417,0c2.528,0 4.528,1.042 6,3.125c1.472,2.056 2.208,4.486 2.208,7.292c0,2.528 -0.708,4.833 -2.125,6.917c-1.389,2.055 -3.416,3.083 -6.083,3.083l-30.417,0l0,40.208l56.625,0c2.528,0 4.528,1.125 6,3.375c1.445,2.278 2.167,5.014 2.167,8.209c0,2.944 -0.694,5.541 -2.083,7.791c-1.389,2.278 -3.417,3.417 -6.084,3.417l-71.208,0c-3.083,0 -5.75,-0.736 -8,-2.208c-2.278,-1.473 -3.417,-3.473 -3.417,-6Zm106,0.208l0,-130.208c0,-2.139 1.07,-4 3.209,-5.584c2.139,-1.611 4.875,-2.416 8.208,-2.416l35.375,-0c14.278,-0 25.681,3.666 34.208,11c8.528,7.333 12.792,18.93 12.792,34.791l0,54.625c0,15.861 -4.264,27.459 -12.792,34.792c-8.527,7.333 -19.93,11 -34.208,11l-35.375,0c-3.333,0 -6.069,-0.806 -8.208,-2.417c-2.139,-1.583 -3.209,-3.444 -3.209,-5.583Zm26,-115.417l0,100.625l20.792,0c14,0 21,-7.666 21,-23l0,-54.625c0,-15.333 -7,-23 -21,-23l-20.792,0Zm85.209,75.417c-0,-3.056 0.736,-5.625 2.208,-7.708c1.472,-2.056 3.403,-3.084 5.792,-3.084l52,0c2.139,0 4.069,1.07 5.791,3.209c1.75,2.111 2.625,4.639 2.625,7.583c0,3.056 -0.833,5.583 -2.5,7.583c-1.666,2 -3.639,3 -5.916,3l-52,0c-2.389,0 -4.32,-0.958 -5.792,-2.875c-1.472,-1.944 -2.208,-4.514 -2.208,-7.708Zm85.791,3.417l0,-55.834c0,-15.861 4.236,-27.458 12.709,-34.791c8.472,-7.334 19.833,-11 34.083,-11c14.278,-0 25.681,3.666 34.208,11c8.528,7.333 12.792,18.93 12.792,34.791l0,55.834c0,14.111 -3.458,24.833 -10.375,32.166c-6.944,7.334 -16.417,11.667 -28.417,13l0,13c0,2.556 -0.791,4.556 -2.375,6c-1.611,1.473 -3.555,2.209 -5.833,2.209c-2.25,-0 -4.208,-0.736 -5.875,-2.209c-1.667,-1.444 -2.5,-3.444 -2.5,-6l0,-13c-25.611,-2.777 -38.417,-17.833 -38.417,-45.166Zm26,-55.834l0,55.834c0,11.583 4.139,18.708 12.417,21.375l0,-10.584c0,-2.666 0.833,-4.666 2.5,-6c1.667,-1.333 3.625,-2 5.875,-2c2.278,0 4.222,0.667 5.833,2c1.584,1.334 2.375,3.334 2.375,6l0,10.584c8.528,-2.806 12.792,-9.931 12.792,-21.375l0,-55.834c0,-7.583 -1.833,-13.305 -5.5,-17.166c-3.667,-3.889 -8.833,-5.834 -15.5,-5.834c-13.861,0 -20.792,7.667 -20.792,23Z" style="fill:#3385d9;fill-rule:nonzero;"/><path d="M596.75,314.917l0,-45.375c0,-1.084 0.722,-1.625 2.167,-1.625c1.472,-0 2.208,0.541 2.208,1.625l0,45.375c0,0.555 -0.222,0.986 -0.667,1.291c-0.444,0.306 -0.958,0.459 -1.541,0.459c-0.611,-0 -1.125,-0.153 -1.542,-0.459c-0.417,-0.305 -0.625,-0.736 -0.625,-1.291Zm21.167,-0l-0,-45.334c-0,-1.111 0.736,-1.666 2.208,-1.666c1.25,-0 2.403,1.027 3.458,3.083l18,35.458l0,-36.916c0,-1.084 0.736,-1.625 2.209,-1.625c1.472,-0 2.208,0.541 2.208,1.625l0,45.375c0,0.555 -0.222,0.986 -0.667,1.291c-0.444,0.306 -0.958,0.459 -1.541,0.459c-1.111,-0 -2.084,-0.848 -2.917,-2.542l-18.542,-36.042l0,36.834c0,0.555 -0.222,0.986 -0.666,1.291c-0.445,0.306 -0.959,0.459 -1.542,0.459c-0.611,-0 -1.125,-0.153 -1.542,-0.459c-0.444,-0.305 -0.666,-0.736 -0.666,-1.291Zm40.833,-44.917c0,-0.528 0.139,-1 0.417,-1.417c0.277,-0.444 0.694,-0.666 1.25,-0.666l26.708,-0c0.528,-0 0.944,0.208 1.25,0.625c0.278,0.389 0.417,0.847 0.417,1.375c-0,0.583 -0.139,1.083 -0.417,1.5c-0.306,0.444 -0.722,0.666 -1.25,0.666l-11.125,0l0,42.834c0,0.555 -0.222,0.986 -0.667,1.291c-0.444,0.306 -0.958,0.459 -1.541,0.459c-0.611,-0 -1.125,-0.153 -1.542,-0.459c-0.444,-0.305 -0.667,-0.736 -0.667,-1.291l0,-42.834l-11.166,0c-0.5,0 -0.903,-0.208 -1.209,-0.625c-0.305,-0.389 -0.458,-0.875 -0.458,-1.458Zm42.792,44.917l-0,-45.334c-0,-0.527 0.194,-0.93 0.583,-1.208c0.417,-0.306 0.889,-0.458 1.417,-0.458l23.708,-0c1.111,-0 1.667,0.652 1.667,1.958c-0,0.583 -0.139,1.083 -0.417,1.5c-0.278,0.417 -0.694,0.625 -1.25,0.625l-21.333,-0l-0,18.333l10.5,0c0.527,0 0.93,0.195 1.208,0.584c0.306,0.361 0.458,0.833 0.458,1.416c0,1.195 -0.555,1.792 -1.666,1.792l-10.5,-0l-0,18.458l21.333,0c0.5,0 0.903,0.209 1.208,0.625c0.306,0.389 0.459,0.875 0.459,1.459c-0,1.333 -0.556,2 -1.667,2l-23.708,-0c-0.528,-0 -1,-0.153 -1.417,-0.459c-0.389,-0.305 -0.583,-0.736 -0.583,-1.291Zm40.541,-0l0,-45.375c0,-1.084 0.723,-1.625 2.167,-1.625c1.472,-0 2.208,0.541 2.208,1.625l0,43.041l19,0c0.973,0 1.459,0.667 1.459,2c-0,1.389 -0.486,2.084 -1.459,2.084l-21.375,-0c-0.555,-0 -1.027,-0.153 -1.416,-0.459c-0.389,-0.305 -0.584,-0.736 -0.584,-1.291Zm37.5,-0l0,-45.375c0,-1.084 0.736,-1.625 2.209,-1.625c1.472,-0 2.208,0.541 2.208,1.625l0,43.041l19,0c0.972,0 1.458,0.667 1.458,2c0,1.389 -0.486,2.084 -1.458,2.084l-21.417,-0c-0.527,-0 -0.986,-0.153 -1.375,-0.459c-0.416,-0.305 -0.625,-0.736 -0.625,-1.291Zm37.542,-0l0,-45.375c0,-1.084 0.736,-1.625 2.208,-1.625c1.473,-0 2.209,0.541 2.209,1.625l-0,45.375c-0,0.555 -0.223,0.986 -0.667,1.291c-0.444,0.306 -0.958,0.459 -1.542,0.459c-0.611,-0 -1.139,-0.153 -1.583,-0.459c-0.417,-0.305 -0.625,-0.736 -0.625,-1.291Zm20.667,-12.125l-0,-20.667c-0,-4.889 1.264,-8.472 3.791,-10.75c2.5,-2.306 5.834,-3.458 10,-3.458c4.223,-0 7.611,1.083 10.167,3.25c2.528,2.166 3.792,4.93 3.792,8.291c-0,1.528 -0.736,2.292 -2.209,2.292c-1.416,-0 -2.152,-0.556 -2.208,-1.667c-0.611,-5.389 -3.764,-8.083 -9.458,-8.083c-6.306,-0 -9.459,3.375 -9.459,10.125l0,20.667c0,3.416 0.82,5.972 2.459,7.666c1.639,1.695 3.972,2.542 7,2.542c3.027,0 5.361,-0.847 7,-2.542c1.639,-1.694 2.458,-4.25 2.458,-7.666l0,-7.917l-8.917,-0c-0.5,-0 -0.889,-0.194 -1.166,-0.583c-0.306,-0.361 -0.459,-0.82 -0.459,-1.375c0,-0.473 0.153,-0.903 0.459,-1.292c0.277,-0.361 0.666,-0.542 1.166,-0.542l11.709,0c1.083,0 1.625,0.57 1.625,1.709l-0,10c-0,4.944 -1.264,8.555 -3.792,10.833c-2.5,2.306 -5.861,3.458 -10.083,3.458c-4.223,0 -7.584,-1.152 -10.084,-3.458c-2.527,-2.278 -3.791,-5.889 -3.791,-10.833Zm43.291,12.125l0,-45.334c0,-0.527 0.195,-0.93 0.584,-1.208c0.389,-0.306 0.861,-0.458 1.416,-0.458l23.709,-0c1.111,-0 1.666,0.652 1.666,1.958c0,0.583 -0.139,1.083 -0.416,1.5c-0.306,0.417 -0.723,0.625 -1.25,0.625l-21.334,-0l0,18.333l10.459,0c0.555,0 0.972,0.195 1.25,0.584c0.277,0.361 0.416,0.833 0.416,1.416c0,1.195 -0.555,1.792 -1.666,1.792l-10.459,-0l0,18.458l21.334,0c0.5,0 0.902,0.209 1.208,0.625c0.306,0.389 0.458,0.875 0.458,1.459c0,1.333 -0.555,2 -1.666,2l-23.709,-0c-0.555,-0 -1.027,-0.153 -1.416,-0.459c-0.389,-0.305 -0.584,-0.736 -0.584,-1.291Zm40.5,-0l0,-45.334c0,-1.111 0.736,-1.666 2.209,-1.666c1.25,-0 2.402,1.027 3.458,3.083l18,35.458l0,-36.916c0,-1.084 0.736,-1.625 2.208,-1.625c1.473,-0 2.209,0.541 2.209,1.625l-0,45.375c-0,0.555 -0.223,0.986 -0.667,1.291c-0.444,0.306 -0.958,0.459 -1.542,0.459c-1.111,-0 -2.083,-0.848 -2.916,-2.542l-18.542,-36.042l0,36.834c0,0.555 -0.222,0.986 -0.667,1.291c-0.444,0.306 -0.958,0.459 -1.541,0.459c-0.611,-0 -1.125,-0.153 -1.542,-0.459c-0.444,-0.305 -0.667,-0.736 -0.667,-1.291Zm40.834,-44.917c-0,-0.528 0.139,-1 0.416,-1.417c0.278,-0.444 0.695,-0.666 1.25,-0.666l26.709,-0c0.527,-0 0.944,0.208 1.25,0.625c0.277,0.389 0.416,0.847 0.416,1.375c0,0.583 -0.139,1.083 -0.416,1.5c-0.306,0.444 -0.723,0.666 -1.25,0.666l-11.125,0l-0,42.834c-0,0.555 -0.223,0.986 -0.667,1.291c-0.444,0.306 -0.958,0.459 -1.542,0.459c-0.611,-0 -1.125,-0.153 -1.541,-0.459c-0.445,-0.305 -0.667,-0.736 -0.667,-1.291l0,-42.834l-11.167,0c-0.5,0 -0.902,-0.208 -1.208,-0.625c-0.306,-0.389 -0.458,-0.875 -0.458,-1.458Zm62.791,44.917l0,-45.375c0,-1.084 0.736,-1.625 2.209,-1.625c1.444,-0 2.166,0.541 2.166,1.625l0,19.916l19.292,0l0,-19.916c0,-1.084 0.736,-1.625 2.208,-1.625c1.445,-0 2.167,0.541 2.167,1.625l0,45.375c0,0.555 -0.222,0.986 -0.667,1.291c-0.444,0.306 -0.944,0.459 -1.5,0.459c-0.639,-0 -1.166,-0.153 -1.583,-0.459c-0.417,-0.305 -0.625,-0.736 -0.625,-1.291l0,-21.667l-19.292,-0l0,21.667c0,0.555 -0.222,0.986 -0.666,1.291c-0.445,0.306 -0.945,0.459 -1.5,0.459c-0.639,-0 -1.167,-0.153 -1.584,-0.459c-0.416,-0.305 -0.625,-0.736 -0.625,-1.291Zm44.875,-0l0,-45.334c0,-0.527 0.195,-0.93 0.584,-1.208c0.389,-0.306 0.861,-0.458 1.416,-0.458l23.709,-0c1.111,-0 1.666,0.652 1.666,1.958c0,0.583 -0.139,1.083 -0.416,1.5c-0.306,0.417 -0.723,0.625 -1.25,0.625l-21.334,-0l0,18.333l10.459,0c0.555,0 0.972,0.195 1.25,0.584c0.277,0.361 0.416,0.833 0.416,1.416c0,1.195 -0.555,1.792 -1.666,1.792l-10.459,-0l0,18.458l21.334,0c0.5,0 0.902,0.209 1.208,0.625c0.306,0.389 0.458,0.875 0.458,1.459c0,1.333 -0.555,2 -1.666,2l-23.709,-0c-0.555,-0 -1.027,-0.153 -1.416,-0.459c-0.389,-0.305 -0.584,-0.736 -0.584,-1.291Zm36.834,-0.125c-0,-0.223 0.027,-0.375 0.083,-0.459l13.917,-45.25c0.333,-1.027 1.208,-1.541 2.625,-1.541c1.416,-0 2.305,0.514 2.666,1.541l13.875,45.25l0,0.209c0.028,0.083 0.042,0.152 0.042,0.208c0,0.528 -0.292,0.972 -0.875,1.333c-0.556,0.389 -1.153,0.584 -1.792,0.584c-0.833,-0 -1.389,-0.375 -1.666,-1.125l-3.042,-10.292l-18.5,-0l-3.042,10.292c-0.194,0.75 -0.777,1.125 -1.75,1.125c-0.611,-0 -1.18,-0.181 -1.708,-0.542c-0.556,-0.361 -0.833,-0.806 -0.833,-1.333Zm16.625,-40.209l-8.125,26.875l16.166,0l-8.041,-26.875Zm29.708,40.334l0,-45.375c0,-1.084 0.736,-1.625 2.208,-1.625c1.473,-0 2.209,0.541 2.209,1.625l-0,43.041l19,0c0.972,0 1.458,0.667 1.458,2c0,1.389 -0.486,2.084 -1.458,2.084l-21.417,-0c-0.528,-0 -0.986,-0.153 -1.375,-0.459c-0.417,-0.305 -0.625,-0.736 -0.625,-1.291Zm33.5,-44.917c0,-0.528 0.139,-1 0.417,-1.417c0.277,-0.444 0.694,-0.666 1.25,-0.666l26.708,-0c0.528,-0 0.944,0.208 1.25,0.625c0.278,0.389 0.417,0.847 0.417,1.375c-0,0.583 -0.139,1.083 -0.417,1.5c-0.306,0.444 -0.722,0.666 -1.25,0.666l-11.125,0l0,42.834c0,0.555 -0.222,0.986 -0.667,1.291c-0.444,0.306 -0.958,0.459 -1.541,0.459c-0.611,-0 -1.125,-0.153 -1.542,-0.459c-0.444,-0.305 -0.667,-0.736 -0.667,-1.291l0,-42.834l-11.166,0c-0.5,0 -0.903,-0.208 -1.209,-0.625c-0.305,-0.389 -0.458,-0.875 -0.458,-1.458Zm42.792,44.917l-0,-45.375c-0,-1.084 0.736,-1.625 2.208,-1.625c1.444,-0 2.167,0.541 2.167,1.625l-0,19.916l19.291,0l0,-19.916c0,-1.084 0.736,-1.625 2.209,-1.625c1.444,-0 2.166,0.541 2.166,1.625l0,45.375c0,0.555 -0.222,0.986 -0.666,1.291c-0.445,0.306 -0.945,0.459 -1.5,0.459c-0.639,-0 -1.167,-0.153 -1.584,-0.459c-0.416,-0.305 -0.625,-0.736 -0.625,-1.291l0,-21.667l-19.291,-0l-0,21.667c-0,0.555 -0.223,0.986 -0.667,1.291c-0.444,0.306 -0.944,0.459 -1.5,0.459c-0.639,-0 -1.167,-0.153 -1.583,-0.459c-0.417,-0.305 -0.625,-0.736 -0.625,-1.291Zm44.333,-12.125l0,-20.667c0,-4.833 1.292,-8.403 3.875,-10.708c2.611,-2.334 5.986,-3.5 10.125,-3.5c4.222,-0 7.569,1.083 10.042,3.25c2.444,2.166 3.666,4.805 3.666,7.916c0,1.056 -0.166,1.764 -0.5,2.125c-0.333,0.361 -0.889,0.542 -1.666,0.542c-1.389,-0 -2.125,-0.556 -2.209,-1.667c-0.055,-0.666 -0.152,-1.319 -0.291,-1.958c-0.111,-0.611 -0.375,-1.306 -0.792,-2.083c-0.389,-0.778 -0.903,-1.459 -1.542,-2.042c-0.666,-0.583 -1.569,-1.056 -2.708,-1.417c-1.167,-0.389 -2.5,-0.583 -4,-0.583c-6.417,-0 -9.625,3.375 -9.625,10.125l0,20.667c0,6.805 3.292,10.208 9.875,10.208c1.861,-0 3.417,-0.25 4.667,-0.75c1.25,-0.528 2.166,-1.278 2.75,-2.25c0.583,-0.972 0.972,-1.806 1.166,-2.5c0.195,-0.694 0.361,-1.597 0.5,-2.708c0.139,-1.139 0.875,-1.709 2.209,-1.709c0.777,0 1.333,0.181 1.666,0.542c0.334,0.389 0.5,1.111 0.5,2.167c0,3.166 -1.25,5.833 -3.75,8c-2.5,2.194 -5.889,3.291 -10.166,3.291c-4.084,0 -7.403,-1.166 -9.959,-3.5c-2.555,-2.305 -3.833,-5.902 -3.833,-10.791Zm38.375,12c0,-0.223 0.028,-0.375 0.083,-0.459l13.917,-45.25c0.333,-1.027 1.208,-1.541 2.625,-1.541c1.417,-0 2.306,0.514 2.667,1.541l13.875,45.25l-0,0.209c0.027,0.083 0.041,0.152 0.041,0.208c0,0.528 -0.291,0.972 -0.875,1.333c-0.555,0.389 -1.152,0.584 -1.791,0.584c-0.834,-0 -1.389,-0.375 -1.667,-1.125l-3.042,-10.292l-18.5,-0l-3.041,10.292c-0.195,0.75 -0.778,1.125 -1.75,1.125c-0.611,-0 -1.181,-0.181 -1.709,-0.542c-0.555,-0.361 -0.833,-0.806 -0.833,-1.333Zm16.625,-40.209l-8.125,26.875l16.167,0l-8.042,-26.875Zm29.708,40.334l0,-45.375c0,-0.973 0.556,-1.514 1.667,-1.625l11.833,-0c4.306,-0 7.778,1.027 10.417,3.083c2.639,2.056 3.958,5.417 3.958,10.083c0,7.361 -3.458,11.639 -10.375,12.834l10.25,19.75c0.167,0.222 0.25,0.514 0.25,0.875c0,0.583 -0.264,1.097 -0.791,1.541c-0.528,0.473 -1.098,0.709 -1.709,0.709c-0.805,-0 -1.583,-0.778 -2.333,-2.334l-10.292,-20l-8.458,0l0,20.459c0,0.555 -0.222,0.986 -0.667,1.291c-0.444,0.306 -0.958,0.459 -1.541,0.459c-0.611,-0 -1.125,-0.153 -1.542,-0.459c-0.444,-0.305 -0.667,-0.736 -0.667,-1.291Zm4.417,-42.917l0,18.667l9.083,-0c6.667,-0 10,-3.139 10,-9.417c0,-6.167 -3.333,-9.25 -10,-9.25l-9.083,-0Zm37.542,42.917l-0,-45.334c-0,-0.527 0.194,-0.93 0.583,-1.208c0.417,-0.306 0.889,-0.458 1.417,-0.458l23.708,-0c1.111,-0 1.667,0.652 1.667,1.958c-0,0.583 -0.139,1.083 -0.417,1.5c-0.278,0.417 -0.694,0.625 -1.25,0.625l-21.333,-0l-0,18.333l10.5,0c0.527,0 0.93,0.195 1.208,0.584c0.306,0.361 0.458,0.833 0.458,1.416c0,1.195 -0.555,1.792 -1.666,1.792l-10.5,-0l-0,18.458l21.333,0c0.5,0 0.903,0.209 1.208,0.625c0.306,0.389 0.459,0.875 0.459,1.459c-0,1.333 -0.556,2 -1.667,2l-23.708,-0c-0.528,-0 -1,-0.153 -1.417,-0.459c-0.389,-0.305 -0.583,-0.736 -0.583,-1.291Zm57.875,-5c-0,-0.528 0.208,-1.07 0.625,-1.625c0.416,-0.556 0.875,-0.834 1.375,-0.834c0.333,0 0.777,0.292 1.333,0.875l1.833,1.917c0.667,0.722 1.723,1.361 3.167,1.917c1.444,0.555 3.125,0.833 5.042,0.833c3.166,-0 5.611,-0.792 7.333,-2.375c1.75,-1.583 2.625,-3.861 2.625,-6.833c0,-2 -0.417,-3.695 -1.25,-5.084c-0.833,-1.416 -1.889,-2.5 -3.167,-3.25c-1.25,-0.805 -2.666,-1.514 -4.25,-2.125l-4.833,-1.875c-1.583,-0.611 -3.014,-1.347 -4.292,-2.208c-1.25,-0.889 -2.291,-2.111 -3.125,-3.667c-0.833,-1.583 -1.25,-3.472 -1.25,-5.666c0,-2.306 0.445,-4.292 1.334,-5.959c0.861,-1.666 2.027,-2.916 3.5,-3.75c1.444,-0.861 2.944,-1.472 4.5,-1.833c1.527,-0.389 3.139,-0.583 4.833,-0.583c2.694,-0 5.236,0.389 7.625,1.166c2.361,0.778 3.542,1.75 3.542,2.917c-0,0.528 -0.181,1.069 -0.542,1.625c-0.389,0.556 -0.847,0.833 -1.375,0.833c-0.278,0 -0.792,-0.208 -1.542,-0.625c-0.75,-0.416 -1.805,-0.847 -3.166,-1.291c-1.361,-0.417 -2.903,-0.625 -4.625,-0.625c-2.806,-0 -5.111,0.597 -6.917,1.791c-1.833,1.223 -2.75,3.209 -2.75,5.959c-0,1.916 0.542,3.514 1.625,4.791c1.083,1.278 2.458,2.209 4.125,2.792c1.639,0.583 3.417,1.278 5.333,2.083c1.889,0.806 3.667,1.653 5.334,2.542c1.639,0.917 3,2.361 4.083,4.333c1.083,2 1.625,4.445 1.625,7.334c-0,4.555 -1.264,7.986 -3.792,10.291c-2.527,2.278 -5.944,3.417 -10.25,3.417c-3.889,-0 -7.139,-0.833 -9.75,-2.5c-2.611,-1.667 -3.916,-3.236 -3.916,-4.708Zm41.708,-7.125l-0,-20.667c-0,-4.889 1.264,-8.472 3.792,-10.75c2.5,-2.306 5.861,-3.458 10.083,-3.458c4.222,-0 7.583,1.152 10.083,3.458c2.528,2.278 3.792,5.861 3.792,10.75l-0,20.667c-0,4.944 -1.264,8.555 -3.792,10.833c-2.5,2.306 -5.861,3.458 -10.083,3.458c-4.222,0 -7.583,-1.152 -10.083,-3.458c-2.528,-2.278 -3.792,-5.889 -3.792,-10.833Zm4.417,-20.667l-0,20.667c-0,6.805 3.152,10.208 9.458,10.208c6.306,-0 9.458,-3.403 9.458,-10.208l0,-20.667c0,-6.75 -3.152,-10.125 -9.458,-10.125c-6.306,-0 -9.458,3.375 -9.458,10.125Zm39.583,32.792l-0,-45.375c-0,-1.084 0.736,-1.625 2.208,-1.625c1.473,-0 2.209,0.541 2.209,1.625l-0,43.041l19,0c0.972,0 1.458,0.667 1.458,2c-0,1.389 -0.486,2.084 -1.458,2.084l-21.417,-0c-0.528,-0 -0.986,-0.153 -1.375,-0.459c-0.417,-0.305 -0.625,-0.736 -0.625,-1.291Zm37.333,-12.125l0,-33.25c0,-1.084 0.736,-1.625 2.209,-1.625c1.472,-0 2.208,0.541 2.208,1.625l-0,33.25c-0,3.389 0.833,5.93 2.5,7.625c1.667,1.722 4.028,2.583 7.083,2.583c3.084,-0 5.459,-0.861 7.125,-2.583c1.667,-1.695 2.5,-4.236 2.5,-7.625l0,-33.25c0,-1.084 0.723,-1.625 2.167,-1.625c1.472,-0 2.208,0.541 2.208,1.625l0,33.25c0,4.944 -1.277,8.555 -3.833,10.833c-2.556,2.306 -5.944,3.458 -10.167,3.458c-4.222,0 -7.611,-1.152 -10.166,-3.458c-2.556,-2.278 -3.834,-5.889 -3.834,-10.833Zm40.542,-32.792c-0,-0.528 0.139,-1 0.417,-1.417c0.305,-0.444 0.722,-0.666 1.25,-0.666l26.75,-0c0.527,-0 0.93,0.208 1.208,0.625c0.306,0.389 0.458,0.847 0.458,1.375c0,0.583 -0.152,1.083 -0.458,1.5c-0.278,0.444 -0.681,0.666 -1.208,0.666l-11.167,0l-0,42.834c-0,0.555 -0.222,0.986 -0.667,1.291c-0.444,0.306 -0.944,0.459 -1.5,0.459c-0.639,-0 -1.166,-0.153 -1.583,-0.459c-0.417,-0.305 -0.625,-0.736 -0.625,-1.291l-0,-42.834l-11.208,0c-0.5,0 -0.903,-0.208 -1.209,-0.625c-0.305,-0.389 -0.458,-0.875 -0.458,-1.458Zm42.792,44.917l-0,-45.375c-0,-1.084 0.736,-1.625 2.208,-1.625c1.472,-0 2.208,0.541 2.208,1.625l0,45.375c0,0.555 -0.222,0.986 -0.666,1.291c-0.445,0.306 -0.959,0.459 -1.542,0.459c-0.611,-0 -1.139,-0.153 -1.583,-0.459c-0.417,-0.305 -0.625,-0.736 -0.625,-1.291Zm20.666,-12.125l0,-20.667c0,-4.889 1.264,-8.472 3.792,-10.75c2.5,-2.306 5.861,-3.458 10.083,-3.458c4.223,-0 7.584,1.152 10.084,3.458c2.527,2.278 3.791,5.861 3.791,10.75l0,20.667c0,4.944 -1.264,8.555 -3.791,10.833c-2.5,2.306 -5.861,3.458 -10.084,3.458c-4.222,0 -7.583,-1.152 -10.083,-3.458c-2.528,-2.278 -3.792,-5.889 -3.792,-10.833Zm4.417,-20.667l-0,20.667c-0,6.805 3.153,10.208 9.458,10.208c6.306,-0 9.459,-3.403 9.459,-10.208l-0,-20.667c-0,-6.75 -3.153,-10.125 -9.459,-10.125c-6.305,-0 -9.458,3.375 -9.458,10.125Zm39.583,32.792l0,-45.334c0,-1.111 0.736,-1.666 2.209,-1.666c1.25,-0 2.402,1.027 3.458,3.083l18,35.458l-0,-36.916c-0,-1.084 0.736,-1.625 2.208,-1.625c1.473,-0 2.209,0.541 2.209,1.625l-0,45.375c-0,0.555 -0.223,0.986 -0.667,1.291c-0.444,0.306 -0.958,0.459 -1.542,0.459c-1.111,-0 -2.083,-0.848 -2.916,-2.542l-18.542,-36.042l-0,36.834c-0,0.555 -0.222,0.986 -0.667,1.291c-0.444,0.306 -0.958,0.459 -1.541,0.459c-0.611,-0 -1.139,-0.153 -1.584,-0.459c-0.416,-0.305 -0.625,-0.736 -0.625,-1.291Zm42.209,-5c-0,-0.528 0.208,-1.07 0.625,-1.625c0.416,-0.556 0.875,-0.834 1.375,-0.834c0.361,0 0.805,0.292 1.333,0.875l1.875,1.917c0.667,0.722 1.722,1.361 3.167,1.917c1.444,0.555 3.125,0.833 5.041,0.833c3.139,-0 5.584,-0.792 7.334,-2.375c1.722,-1.583 2.583,-3.861 2.583,-6.833c-0,-2 -0.417,-3.695 -1.25,-5.084c-0.806,-1.416 -1.861,-2.5 -3.167,-3.25c-1.222,-0.805 -2.639,-1.514 -4.25,-2.125l-4.791,-1.875c-1.611,-0.611 -3.042,-1.347 -4.292,-2.208c-1.278,-0.889 -2.333,-2.111 -3.167,-3.667c-0.805,-1.583 -1.208,-3.472 -1.208,-5.666c-0,-2.306 0.431,-4.292 1.292,-5.959c0.861,-1.666 2.027,-2.916 3.5,-3.75c1.472,-0.861 2.972,-1.472 4.5,-1.833c1.527,-0.389 3.139,-0.583 4.833,-0.583c2.722,-0 5.264,0.389 7.625,1.166c2.389,0.778 3.583,1.75 3.583,2.917c0,0.528 -0.194,1.069 -0.583,1.625c-0.361,0.556 -0.819,0.833 -1.375,0.833c-0.25,0 -0.75,-0.208 -1.5,-0.625c-0.778,-0.416 -1.833,-0.847 -3.167,-1.291c-1.361,-0.417 -2.916,-0.625 -4.666,-0.625c-2.778,-0 -5.084,0.597 -6.917,1.791c-1.833,1.223 -2.75,3.209 -2.75,5.959c-0,1.916 0.556,3.514 1.667,4.791c1.083,1.278 2.444,2.209 4.083,2.792c1.639,0.583 3.417,1.278 5.333,2.083c1.917,0.806 3.695,1.653 5.334,2.542c1.639,0.917 3,2.361 4.083,4.333c1.111,2 1.667,4.445 1.667,7.334c-0,4.555 -1.278,7.986 -3.834,10.291c-2.527,2.278 -5.944,3.417 -10.25,3.417c-3.861,-0 -7.111,-0.833 -9.75,-2.5c-2.611,-1.667 -3.916,-3.236 -3.916,-4.708Z" style="fill:#3385d9;fill-rule:nonzero;"/></svg>