<svg xmlns="http://www.w3.org/2000/svg" width="500" height="500" viewBox="0 0 500 500"><g transform="translate(164,205)translate(-62.5,47)rotate(0)translate(62.5,-47) scale(-1.0593220338983051,1.0593220338983051)" opacity="1"><defs class="defs"/><path fill="#1B6DC1" d="M113.046,0H69.637C72.016,0,72,0.793,72,3.176V31h29.978c2.384,0,3.022,2.141,3.022,4.521v17.272&#10;&#9;c0,2.383-0.639,5.207-3.022,5.207H72v26.061C72,86.441,72.016,89,69.637,89h43.409c3.595,0,4.954-3.102,4.954-5.643V3.423&#10;&#9;C118,0.883,116.641,0,113.046,0z" class="color c1"/><path fill="#1B6DC1" d="M5.604,0h43.413C46.637,0,46,0.793,46,3.176V31H16.674C14.291,31,13,33.141,13,35.521v17.272&#10;&#9;C13,55.176,14.291,58,16.674,58H46v26.061C46,86.441,46.637,89,49.018,89H5.604C2.011,89,0,85.898,0,83.357V3.423&#10;&#9;C0,0.883,2.011,0,5.604,0z" class="color c2"/></g><g transform="translate(235,201)translate(73.5,32.5)rotate(0)translate(-73.5,-32.5)" opacity="1"><path transform="translate(6,0)rotate(0)" d="M2.88 47.03L2.88 47.03L2.88 17.03L2.88 17.03Q2.88 15.45 3.77 14.68L3.77 14.68L3.77 14.68Q4.66 13.91 6 13.91L6 13.91L6 13.91Q7.78 13.91 8.74 14.54L8.74 14.54L8.74 14.54Q9.70 15.16 10.85 17.22L10.85 17.22L16.75 27.98L22.66 17.22L22.66 17.22Q23.81 15.16 24.79 14.54L24.79 14.54L24.79 14.54Q25.78 13.91 27.55 13.91L27.55 13.91L27.55 13.91Q28.90 13.91 29.78 14.68L29.78 14.68L29.78 14.68Q30.67 15.45 30.67 17.03L30.67 17.03L30.67 47.03L30.67 47.03Q30.67 47.94 29.74 48.47L29.74 48.47L29.74 48.47Q28.80 49 27.55 49L27.55 49L27.55 49Q26.26 49 25.34 48.47L25.34 48.47L25.34 48.47Q24.43 47.94 24.43 47.03L24.43 47.03L24.43 26.39L18.82 36.38L18.82 36.38Q18.14 37.62 16.70 37.62L16.70 37.62L16.70 37.62Q15.31 37.62 14.64 36.38L14.64 36.38L9.12 26.01L9.12 47.03L9.12 47.03Q9.12 47.94 8.18 48.47L8.18 48.47L8.18 48.47Q7.25 49 6 49L6 49L6 49Q4.70 49 3.79 48.47L3.79 48.47L3.79 48.47Q2.88 47.94 2.88 47.03ZM36.43 47.03L36.43 47.03L36.43 15.88L36.43 15.88Q36.43 14.97 37.25 14.44L37.25 14.44L37.25 14.44Q38.06 13.91 39.17 13.91L39.17 13.91L56.26 13.91L56.26 13.91Q57.22 13.91 57.72 14.73L57.72 14.73L57.72 14.73Q58.22 15.54 58.22 16.60L58.22 16.60L58.22 16.60Q58.22 17.75 57.70 18.57L57.70 18.57L57.70 18.57Q57.17 19.38 56.26 19.38L56.26 19.38L42.67 19.38L42.67 28.98L49.97 28.98L49.97 28.98Q50.88 28.98 51.41 29.73L51.41 29.73L51.41 29.73Q51.94 30.47 51.94 31.48L51.94 31.48L51.94 31.48Q51.94 32.39 51.43 33.14L51.43 33.14L51.43 33.14Q50.93 33.88 49.97 33.88L49.97 33.88L42.67 33.88L42.67 43.53L56.26 43.53L56.26 43.53Q57.17 43.53 57.70 44.34L57.70 44.34L57.70 44.34Q58.22 45.16 58.22 46.31L58.22 46.31L58.22 46.31Q58.22 47.37 57.72 48.18L57.72 48.18L57.72 48.18Q57.22 49 56.26 49L56.26 49L39.17 49L39.17 49Q38.06 49 37.25 48.47L37.25 48.47L37.25 48.47Q36.43 47.94 36.43 47.03ZM61.87 47.08L61.87 47.08L61.87 15.83L61.87 15.83Q61.87 15.06 62.64 14.49L62.64 14.49L62.64 14.49Q63.41 13.91 64.61 13.91L64.61 13.91L73.10 13.91L73.10 13.91Q78.24 13.91 81.31 16.55L81.31 16.55L81.31 16.55Q84.38 19.19 84.38 24.90L84.38 24.90L84.38 38.01L84.38 38.01Q84.38 43.72 81.31 46.36L81.31 46.36L81.31 46.36Q78.24 49 73.10 49L73.10 49L64.61 49L64.61 49Q63.41 49 62.64 48.42L62.64 48.42L62.64 48.42Q61.87 47.85 61.87 47.08ZM68.11 19.38L68.11 43.53L73.10 43.53L73.10 43.53Q78.14 43.53 78.14 38.01L78.14 38.01L78.14 24.90L78.14 24.90Q78.14 19.38 73.10 19.38L73.10 19.38L68.11 19.38ZM88.56 37.48L88.56 37.48L88.56 37.48Q88.56 36.38 89.09 35.63L89.09 35.63L89.09 35.63Q89.62 34.89 90.48 34.89L90.48 34.89L102.96 34.89L102.96 34.89Q103.73 34.89 104.35 35.66L104.35 35.66L104.35 35.66Q104.98 36.42 104.98 37.48L104.98 37.48L104.98 37.48Q104.98 38.58 104.38 39.30L104.38 39.30L104.38 39.30Q103.78 40.02 102.96 40.02L102.96 40.02L90.48 40.02L90.48 40.02Q89.62 40.02 89.09 39.33L89.09 39.33L89.09 39.33Q88.56 38.63 88.56 37.48ZM109.15 38.30L109.15 38.30L109.15 24.90L109.15 24.90Q109.15 19.19 112.20 16.55L112.20 16.55L112.20 16.55Q115.25 13.91 120.38 13.91L120.38 13.91L120.38 13.91Q125.52 13.91 128.59 16.55L128.59 16.55L128.59 16.55Q131.66 19.19 131.66 24.90L131.66 24.90L131.66 38.30L131.66 38.30Q131.66 43.38 129.17 46.02L129.17 46.02L129.17 46.02Q126.67 48.66 122.35 49.14L122.35 49.14L122.35 52.26L122.35 52.26Q122.35 53.18 121.78 53.70L121.78 53.70L121.78 53.70Q121.20 54.23 120.38 54.23L120.38 54.23L120.38 54.23Q119.57 54.23 118.97 53.70L118.97 53.70L118.97 53.70Q118.37 53.18 118.37 52.26L118.37 52.26L118.37 49.14L118.37 49.14Q109.15 48.14 109.15 38.30ZM115.39 24.90L115.39 38.30L115.39 38.30Q115.39 42.47 118.37 43.43L118.37 43.43L118.37 40.89L118.37 40.89Q118.37 39.93 118.97 39.45L118.97 39.45L118.97 39.45Q119.57 38.97 120.38 38.97L120.38 38.97L120.38 38.97Q121.20 38.97 121.78 39.45L121.78 39.45L121.78 39.45Q122.35 39.93 122.35 40.89L122.35 40.89L122.35 43.43L122.35 43.43Q125.42 42.42 125.42 38.30L125.42 38.30L125.42 24.90L125.42 24.90Q125.42 22.17 124.10 20.78L124.10 20.78L124.10 20.78Q122.78 19.38 120.38 19.38L120.38 19.38L120.38 19.38Q115.39 19.38 115.39 24.90L115.39 24.90Z" fill="#3385D9"/></g><g transform="translate(175,265)translate(151,11)rotate(0)translate(-151,-11)" opacity="1"><path transform="translate(6,0)rotate(0)" d="M1.22 15.58L1.22 15.58L1.22 4.69L1.22 4.69Q1.22 4.30 1.74 4.30L1.74 4.30L1.74 4.30Q2.27 4.30 2.27 4.69L2.27 4.69L2.27 15.58L2.27 15.58Q2.27 15.78 2.11 15.89L2.11 15.89L2.11 15.89Q1.95 16 1.74 16L1.74 16L1.74 16Q1.52 16 1.37 15.89L1.37 15.89L1.37 15.89Q1.22 15.78 1.22 15.58ZM6.30 15.58L6.30 15.58L6.30 4.70L6.30 4.70Q6.30 4.30 6.83 4.30L6.83 4.30L6.83 4.30Q7.28 4.30 7.66 5.04L7.66 5.04L11.98 13.55L11.98 4.69L11.98 4.69Q11.98 4.30 12.51 4.30L12.51 4.30L12.51 4.30Q13.04 4.30 13.04 4.69L13.04 4.69L13.04 15.58L13.04 15.58Q13.04 15.78 12.88 15.89L12.88 15.89L12.88 15.89Q12.72 16 12.51 16L12.51 16L12.51 16Q12.11 16 11.81 15.39L11.81 15.39L7.36 6.74L7.36 15.58L7.36 15.58Q7.36 15.78 7.20 15.89L7.20 15.89L7.20 15.89Q7.04 16 6.83 16L6.83 16L6.83 16Q6.61 16 6.46 15.89L6.46 15.89L6.46 15.89Q6.30 15.78 6.30 15.58ZM16.10 4.80L16.10 4.80L16.10 4.80Q16.10 4.61 16.20 4.46L16.20 4.46L16.20 4.46Q16.30 4.30 16.50 4.30L16.50 4.30L22.91 4.30L22.91 4.30Q23.10 4.30 23.21 4.45L23.21 4.45L23.21 4.45Q23.31 4.59 23.31 4.78L23.31 4.78L23.31 4.78Q23.31 4.99 23.21 5.14L23.21 5.14L23.21 5.14Q23.10 5.30 22.91 5.30L22.91 5.30L20.24 5.30L20.24 15.58L20.24 15.58Q20.24 15.78 20.08 15.89L20.08 15.89L20.08 15.89Q19.92 16 19.71 16L19.71 16L19.71 16Q19.49 16 19.34 15.89L19.34 15.89L19.34 15.89Q19.18 15.78 19.18 15.58L19.18 15.58L19.18 5.30L16.50 5.30L16.50 5.30Q16.32 5.30 16.21 5.15L16.21 5.15L16.21 5.15Q16.10 5.01 16.10 4.80ZM26.37 15.58L26.37 15.58L26.37 4.70L26.37 4.70Q26.37 4.51 26.51 4.41L26.51 4.41L26.51 4.41Q26.66 4.30 26.85 4.30L26.85 4.30L32.54 4.30L32.54 4.30Q32.94 4.30 32.94 4.77L32.94 4.77L32.94 4.77Q32.94 4.98 32.84 5.13L32.84 5.13L32.84 5.13Q32.74 5.28 32.54 5.28L32.54 5.28L27.42 5.28L27.42 9.68L29.94 9.68L29.94 9.68Q30.13 9.68 30.23 9.82L30.23 9.82L30.23 9.82Q30.34 9.95 30.34 10.16L30.34 10.16L30.34 10.16Q30.34 10.59 29.94 10.59L29.94 10.59L27.42 10.59L27.42 15.02L32.54 15.02L32.54 15.02Q32.72 15.02 32.83 15.17L32.83 15.17L32.83 15.17Q32.94 15.31 32.94 15.52L32.94 15.52L32.94 15.52Q32.94 16 32.54 16L32.54 16L26.85 16L26.85 16Q26.66 16 26.51 15.89L26.51 15.89L26.51 15.89Q26.37 15.78 26.37 15.58ZM36.10 15.58L36.10 15.58L36.10 4.69L36.10 4.69Q36.10 4.30 36.62 4.30L36.62 4.30L36.62 4.30Q37.15 4.30 37.15 4.69L37.15 4.69L37.15 15.02L41.71 15.02L41.71 15.02Q42.06 15.02 42.06 15.50L42.06 15.50L42.06 15.50Q42.06 16 41.71 16L41.71 16L36.58 16L36.58 16Q36.38 16 36.24 15.89L36.24 15.89L36.24 15.89Q36.10 15.78 36.10 15.58ZM45.10 15.58L45.10 15.58L45.10 4.69L45.10 4.69Q45.10 4.30 45.63 4.30L45.63 4.30L45.63 4.30Q46.16 4.30 46.16 4.69L46.16 4.69L46.16 15.02L50.72 15.02L50.72 15.02Q51.07 15.02 51.07 15.50L51.07 15.50L51.07 15.50Q51.07 16 50.72 16L50.72 16L45.58 16L45.58 16Q45.39 16 45.25 15.89L45.25 15.89L45.25 15.89Q45.10 15.78 45.10 15.58ZM54.11 15.58L54.11 15.58L54.11 4.69L54.11 4.69Q54.11 4.30 54.64 4.30L54.64 4.30L54.64 4.30Q55.17 4.30 55.17 4.69L55.17 4.69L55.17 15.58L55.17 15.58Q55.17 15.78 55.01 15.89L55.01 15.89L55.01 15.89Q54.85 16 54.64 16L54.64 16L54.64 16Q54.42 16 54.26 15.89L54.26 15.89L54.26 15.89Q54.11 15.78 54.11 15.58ZM59.07 12.67L59.07 12.67L59.07 7.71L59.07 7.71Q59.07 5.95 59.98 5.13L59.98 5.13L59.98 5.13Q60.88 4.30 62.38 4.30L62.38 4.30L62.38 4.30Q63.90 4.30 64.82 5.08L64.82 5.08L64.82 5.08Q65.73 5.86 65.73 7.07L65.73 7.07L65.73 7.07Q65.73 7.62 65.20 7.62L65.20 7.62L65.20 7.62Q64.69 7.62 64.67 7.22L64.67 7.22L64.67 7.22Q64.45 5.28 62.40 5.28L62.40 5.28L62.40 5.28Q60.13 5.28 60.13 7.71L60.13 7.71L60.13 12.67L60.13 12.67Q60.13 13.90 60.72 14.51L60.72 14.51L60.72 14.51Q61.31 15.12 62.40 15.12L62.40 15.12L62.40 15.12Q63.49 15.12 64.08 14.51L64.08 14.51L64.08 14.51Q64.67 13.90 64.67 12.67L64.67 12.67L64.67 10.77L62.53 10.77L62.53 10.77Q62.35 10.77 62.25 10.63L62.25 10.63L62.25 10.63Q62.14 10.50 62.14 10.30L62.14 10.30L62.14 10.30Q62.14 10.13 62.25 9.99L62.25 9.99L62.25 9.99Q62.35 9.86 62.53 9.86L62.53 9.86L65.34 9.86L65.34 9.86Q65.73 9.86 65.73 10.27L65.73 10.27L65.73 12.67L65.73 12.67Q65.73 14.45 64.82 15.27L64.82 15.27L64.82 15.27Q63.92 16.10 62.40 16.10L62.40 16.10L62.40 16.10Q60.88 16.10 59.98 15.27L59.98 15.27L59.98 15.27Q59.07 14.45 59.07 12.67ZM69.46 15.58L69.46 15.58L69.46 4.70L69.46 4.70Q69.46 4.51 69.60 4.41L69.60 4.41L69.60 4.41Q69.74 4.30 69.94 4.30L69.94 4.30L75.63 4.30L75.63 4.30Q76.03 4.30 76.03 4.77L76.03 4.77L76.03 4.77Q76.03 4.98 75.93 5.13L75.93 5.13L75.93 5.13Q75.82 5.28 75.63 5.28L75.63 5.28L70.51 5.28L70.51 9.68L73.02 9.68L73.02 9.68Q73.22 9.68 73.32 9.82L73.32 9.82L73.32 9.82Q73.42 9.95 73.42 10.16L73.42 10.16L73.42 10.16Q73.42 10.59 73.02 10.59L73.02 10.59L70.51 10.59L70.51 15.02L75.63 15.02L75.63 15.02Q75.81 15.02 75.92 15.17L75.92 15.17L75.92 15.17Q76.03 15.31 76.03 15.52L76.03 15.52L76.03 15.52Q76.03 16 75.63 16L75.63 16L69.94 16L69.94 16Q69.74 16 69.60 15.89L69.60 15.89L69.60 15.89Q69.46 15.78 69.46 15.58ZM79.18 15.58L79.18 15.58L79.18 4.70L79.18 4.70Q79.18 4.30 79.71 4.30L79.71 4.30L79.71 4.30Q80.16 4.30 80.54 5.04L80.54 5.04L84.86 13.55L84.86 4.69L84.86 4.69Q84.86 4.30 85.39 4.30L85.39 4.30L85.39 4.30Q85.92 4.30 85.92 4.69L85.92 4.69L85.92 15.58L85.92 15.58Q85.92 15.78 85.76 15.89L85.76 15.89L85.76 15.89Q85.60 16 85.39 16L85.39 16L85.39 16Q84.99 16 84.69 15.39L84.69 15.39L80.24 6.74L80.24 15.58L80.24 15.58Q80.24 15.78 80.08 15.89L80.08 15.89L80.08 15.89Q79.92 16 79.71 16L79.71 16L79.71 16Q79.49 16 79.34 15.89L79.34 15.89L79.34 15.89Q79.18 15.78 79.18 15.58ZM88.98 4.80L88.98 4.80L88.98 4.80Q88.98 4.61 89.08 4.46L89.08 4.46L89.08 4.46Q89.18 4.30 89.38 4.30L89.38 4.30L95.79 4.30L95.79 4.30Q95.98 4.30 96.09 4.45L96.09 4.45L96.09 4.45Q96.19 4.59 96.19 4.78L96.19 4.78L96.19 4.78Q96.19 4.99 96.09 5.14L96.09 5.14L96.09 5.14Q95.98 5.30 95.79 5.30L95.79 5.30L93.12 5.30L93.12 15.58L93.12 15.58Q93.12 15.78 92.96 15.89L92.96 15.89L92.96 15.89Q92.80 16 92.59 16L92.59 16L92.59 16Q92.37 16 92.22 15.89L92.22 15.89L92.22 15.89Q92.06 15.78 92.06 15.58L92.06 15.58L92.06 5.30L89.38 5.30L89.38 5.30Q89.20 5.30 89.09 5.15L89.09 5.15L89.09 5.15Q88.98 5.01 88.98 4.80ZM104.05 15.58L104.05 15.58L104.05 4.69L104.05 4.69Q104.05 4.30 104.58 4.30L104.58 4.30L104.58 4.30Q105.10 4.30 105.10 4.69L105.10 4.69L105.10 9.47L109.73 9.47L109.73 4.69L109.73 4.69Q109.73 4.30 110.26 4.30L110.26 4.30L110.26 4.30Q110.78 4.30 110.78 4.69L110.78 4.69L110.78 15.58L110.78 15.58Q110.78 15.78 110.62 15.89L110.62 15.89L110.62 15.89Q110.46 16 110.26 16L110.26 16L110.26 16Q110.03 16 109.88 15.89L109.88 15.89L109.88 15.89Q109.73 15.78 109.73 15.58L109.73 15.58L109.73 10.38L105.10 10.38L105.10 15.58L105.10 15.58Q105.10 15.78 104.94 15.89L104.94 15.89L104.94 15.89Q104.78 16 104.58 16L104.58 16L104.58 16Q104.35 16 104.20 15.89L104.20 15.89L104.20 15.89Q104.05 15.78 104.05 15.58ZM114.82 15.58L114.82 15.58L114.82 4.70L114.82 4.70Q114.82 4.51 114.96 4.41L114.96 4.41L114.96 4.41Q115.10 4.30 115.30 4.30L115.30 4.30L120.99 4.30L120.99 4.30Q121.39 4.30 121.39 4.77L121.39 4.77L121.39 4.77Q121.39 4.98 121.29 5.13L121.29 5.13L121.29 5.13Q121.18 5.28 120.99 5.28L120.99 5.28L115.87 5.28L115.87 9.68L118.38 9.68L118.38 9.68Q118.58 9.68 118.68 9.82L118.68 9.82L118.68 9.82Q118.78 9.95 118.78 10.16L118.78 10.16L118.78 10.16Q118.78 10.59 118.38 10.59L118.38 10.59L115.87 10.59L115.87 15.02L120.99 15.02L120.99 15.02Q121.17 15.02 121.28 15.17L121.28 15.17L121.28 15.17Q121.39 15.31 121.39 15.52L121.39 15.52L121.39 15.52Q121.39 16 120.99 16L120.99 16L115.30 16L115.30 16Q115.10 16 114.96 15.89L114.96 15.89L114.96 15.89Q114.82 15.78 114.82 15.58ZM123.66 15.55L123.66 15.55L123.66 15.55Q123.66 15.47 123.68 15.44L123.68 15.44L127.02 4.58L127.02 4.58Q127.14 4.21 127.65 4.21L127.65 4.21L127.65 4.21Q128.16 4.21 128.29 4.58L128.29 4.58L131.62 15.44L131.62 15.44Q131.62 15.46 131.62 15.49L131.62 15.49L131.62 15.49Q131.63 15.52 131.63 15.54L131.63 15.54L131.63 15.54Q131.63 15.73 131.42 15.86L131.42 15.86L131.42 15.86Q131.22 16 130.99 16L130.99 16L130.99 16Q130.69 16 130.59 15.73L130.59 15.73L129.86 13.26L125.42 13.26L124.69 15.73L124.69 15.73Q124.62 16 124.27 16L124.27 16L124.27 16Q124.05 16 123.86 15.87L123.86 15.87L123.86 15.87Q123.66 15.74 123.66 15.55ZM127.65 5.90L125.70 12.35L129.58 12.35L127.65 5.90ZM134.78 15.58L134.78 15.58L134.78 4.69L134.78 4.69Q134.78 4.30 135.31 4.30L135.31 4.30L135.31 4.30Q135.84 4.30 135.84 4.69L135.84 4.69L135.84 15.02L140.40 15.02L140.40 15.02Q140.75 15.02 140.75 15.50L140.75 15.50L140.75 15.50Q140.75 16 140.40 16L140.40 16L135.26 16L135.26 16Q135.07 16 134.93 15.89L134.93 15.89L134.93 15.89Q134.78 15.78 134.78 15.58ZM142.82 4.80L142.82 4.80L142.82 4.80Q142.82 4.61 142.92 4.46L142.92 4.46L142.92 4.46Q143.02 4.30 143.22 4.30L143.22 4.30L149.63 4.30L149.63 4.30Q149.82 4.30 149.93 4.45L149.93 4.45L149.93 4.45Q150.03 4.59 150.03 4.78L150.03 4.78L150.03 4.78Q150.03 4.99 149.93 5.14L149.93 5.14L149.93 5.14Q149.82 5.30 149.63 5.30L149.63 5.30L146.96 5.30L146.96 15.58L146.96 15.58Q146.96 15.78 146.80 15.89L146.80 15.89L146.80 15.89Q146.64 16 146.43 16L146.43 16L146.43 16Q146.21 16 146.06 15.89L146.06 15.89L146.06 15.89Q145.90 15.78 145.90 15.58L145.90 15.58L145.90 5.30L143.22 5.30L143.22 5.30Q143.04 5.30 142.93 5.15L142.93 5.15L142.93 5.15Q142.82 5.01 142.82 4.80ZM153.09 15.58L153.09 15.58L153.09 4.69L153.09 4.69Q153.09 4.30 153.62 4.30L153.62 4.30L153.62 4.30Q154.14 4.30 154.14 4.69L154.14 4.69L154.14 9.47L158.77 9.47L158.77 4.69L158.77 4.69Q158.77 4.30 159.30 4.30L159.30 4.30L159.30 4.30Q159.82 4.30 159.82 4.69L159.82 4.69L159.82 15.58L159.82 15.58Q159.82 15.78 159.66 15.89L159.66 15.89L159.66 15.89Q159.50 16 159.30 16L159.30 16L159.30 16Q159.07 16 158.92 15.89L158.92 15.89L158.92 15.89Q158.77 15.78 158.77 15.58L158.77 15.58L158.77 10.38L154.14 10.38L154.14 15.58L154.14 15.58Q154.14 15.78 153.98 15.89L153.98 15.89L153.98 15.89Q153.82 16 153.62 16L153.62 16L153.62 16Q153.39 16 153.24 15.89L153.24 15.89L153.24 15.89Q153.09 15.78 153.09 15.58ZM163.73 12.67L163.73 12.67L163.73 7.71L163.73 7.71Q163.73 5.97 164.66 5.14L164.66 5.14L164.66 5.14Q165.60 4.30 167.09 4.30L167.09 4.30L167.09 4.30Q168.61 4.30 169.50 5.08L169.50 5.08L169.50 5.08Q170.38 5.86 170.38 6.98L170.38 6.98L170.38 6.98Q170.38 7.36 170.26 7.49L170.26 7.49L170.26 7.49Q170.14 7.62 169.86 7.62L169.86 7.62L169.86 7.62Q169.36 7.62 169.33 7.22L169.33 7.22L169.33 7.22Q169.31 6.98 169.26 6.75L169.26 6.75L169.26 6.75Q169.22 6.53 169.07 6.25L169.07 6.25L169.07 6.25Q168.93 5.97 168.70 5.76L168.70 5.76L168.70 5.76Q168.46 5.55 168.05 5.42L168.05 5.42L168.05 5.42Q167.63 5.28 167.09 5.28L167.09 5.28L167.09 5.28Q164.78 5.28 164.78 7.71L164.78 7.71L164.78 12.67L164.78 12.67Q164.78 15.12 167.15 15.12L167.15 15.12L167.15 15.12Q167.82 15.12 168.27 14.94L168.27 14.94L168.27 14.94Q168.72 14.75 168.93 14.40L168.93 14.40L168.93 14.40Q169.14 14.05 169.21 13.80L169.21 13.80L169.21 13.80Q169.28 13.55 169.33 13.15L169.33 13.15L169.33 13.15Q169.38 12.74 169.86 12.74L169.86 12.74L169.86 12.74Q170.14 12.74 170.26 12.87L170.26 12.87L170.26 12.87Q170.38 13.01 170.38 13.39L170.38 13.39L170.38 13.39Q170.38 14.53 169.48 15.31L169.48 15.31L169.48 15.31Q168.58 16.10 167.04 16.10L167.04 16.10L167.04 16.10Q165.57 16.10 164.65 15.26L164.65 15.26L164.65 15.26Q163.73 14.43 163.73 12.67ZM172.94 15.55L172.94 15.55L172.94 15.55Q172.94 15.47 172.96 15.44L172.96 15.44L176.30 4.58L176.30 4.58Q176.42 4.21 176.93 4.21L176.93 4.21L176.93 4.21Q177.44 4.21 177.57 4.58L177.57 4.58L180.90 15.44L180.90 15.44Q180.90 15.46 180.90 15.49L180.90 15.49L180.90 15.49Q180.91 15.52 180.91 15.54L180.91 15.54L180.91 15.54Q180.91 15.73 180.70 15.86L180.70 15.86L180.70 15.86Q180.50 16 180.27 16L180.27 16L180.27 16Q179.97 16 179.87 15.73L179.87 15.73L179.14 13.26L174.70 13.26L173.97 15.73L173.97 15.73Q173.90 16 173.55 16L173.55 16L173.55 16Q173.33 16 173.14 15.87L173.14 15.87L173.14 15.87Q172.94 15.74 172.94 15.55ZM176.93 5.90L174.98 12.35L178.86 12.35L176.93 5.90ZM184.06 15.58L184.06 15.58L184.06 4.69L184.06 4.69Q184.06 4.34 184.46 4.30L184.46 4.30L187.30 4.30L187.30 4.30Q188.85 4.30 189.80 5.04L189.80 5.04L189.80 5.04Q190.75 5.78 190.75 7.46L190.75 7.46L190.75 7.46Q190.75 10.11 188.26 10.54L188.26 10.54L190.72 15.28L190.72 15.28Q190.78 15.36 190.78 15.49L190.78 15.49L190.78 15.49Q190.78 15.70 190.59 15.86L190.59 15.86L190.59 15.86Q190.40 16.03 190.18 16.03L190.18 16.03L190.18 16.03Q189.89 16.03 189.62 15.47L189.62 15.47L187.15 10.67L185.12 10.67L185.12 15.58L185.12 15.58Q185.12 15.78 184.96 15.89L184.96 15.89L184.96 15.89Q184.80 16 184.59 16L184.59 16L184.59 16Q184.37 16 184.22 15.89L184.22 15.89L184.22 15.89Q184.06 15.78 184.06 15.58ZM185.12 5.28L185.12 9.76L187.30 9.76L187.30 9.76Q189.70 9.76 189.70 7.50L189.70 7.50L189.70 7.50Q189.70 5.28 187.30 5.28L187.30 5.28L185.12 5.28ZM194.13 15.58L194.13 15.58L194.13 4.70L194.13 4.70Q194.13 4.51 194.27 4.41L194.27 4.41L194.27 4.41Q194.42 4.30 194.61 4.30L194.61 4.30L200.30 4.30L200.30 4.30Q200.70 4.30 200.70 4.77L200.70 4.77L200.70 4.77Q200.70 4.98 200.60 5.13L200.60 5.13L200.60 5.13Q200.50 5.28 200.30 5.28L200.30 5.28L195.18 5.28L195.18 9.68L197.70 9.68L197.70 9.68Q197.89 9.68 197.99 9.82L197.99 9.82L197.99 9.82Q198.10 9.95 198.10 10.16L198.10 10.16L198.10 10.16Q198.10 10.59 197.70 10.59L197.70 10.59L195.18 10.59L195.18 15.02L200.30 15.02L200.30 15.02Q200.48 15.02 200.59 15.17L200.59 15.17L200.59 15.17Q200.70 15.31 200.70 15.52L200.70 15.52L200.70 15.52Q200.70 16 200.30 16L200.30 16L194.61 16L194.61 16Q194.42 16 194.27 15.89L194.27 15.89L194.27 15.89Q194.13 15.78 194.13 15.58ZM208.02 14.38L208.02 14.38L208.02 14.38Q208.02 14.19 208.17 13.99L208.17 13.99L208.17 13.99Q208.32 13.79 208.50 13.79L208.50 13.79L208.50 13.79Q208.62 13.79 208.82 14L208.82 14L209.26 14.46L209.26 14.46Q209.50 14.72 210.02 14.92L210.02 14.92L210.02 14.92Q210.54 15.12 211.23 15.12L211.23 15.12L211.23 15.12Q212.37 15.12 212.99 14.55L212.99 14.55L212.99 14.55Q213.62 13.98 213.62 12.91L213.62 12.91L213.62 12.91Q213.62 12.19 213.32 11.69L213.32 11.69L213.32 11.69Q213.02 11.18 212.56 10.91L212.56 10.91L212.56 10.91Q212.11 10.62 211.54 10.40L211.54 10.40L210.38 9.95L210.38 9.95Q209.81 9.73 209.35 9.42L209.35 9.42L209.35 9.42Q208.90 9.10 208.60 8.54L208.60 8.54L208.60 8.54Q208.30 7.97 208.30 7.18L208.30 7.18L208.30 7.18Q208.30 6.35 208.62 5.75L208.62 5.75L208.62 5.75Q208.93 5.15 209.46 4.85L209.46 4.85L209.46 4.85Q209.98 4.54 210.54 4.41L210.54 4.41L210.54 4.41Q211.09 4.27 211.70 4.27L211.70 4.27L211.70 4.27Q212.67 4.27 213.53 4.55L213.53 4.55L213.53 4.55Q214.38 4.83 214.38 5.25L214.38 5.25L214.38 5.25Q214.38 5.44 214.25 5.64L214.25 5.64L214.25 5.64Q214.11 5.84 213.92 5.84L213.92 5.84L213.92 5.84Q213.82 5.84 213.55 5.69L213.55 5.69L213.55 5.69Q213.28 5.54 212.79 5.38L212.79 5.38L212.79 5.38Q212.30 5.23 211.68 5.23L211.68 5.23L211.68 5.23Q210.67 5.23 210.02 5.66L210.02 5.66L210.02 5.66Q209.36 6.10 209.36 7.09L209.36 7.09L209.36 7.09Q209.36 7.78 209.75 8.24L209.75 8.24L209.75 8.24Q210.14 8.70 210.74 8.91L210.74 8.91L210.74 8.91Q211.33 9.12 212.02 9.41L212.02 9.41L212.02 9.41Q212.70 9.70 213.30 10.02L213.30 10.02L213.30 10.02Q213.89 10.35 214.28 11.06L214.28 11.06L214.28 11.06Q214.67 11.78 214.67 12.82L214.67 12.82L214.67 12.82Q214.67 14.46 213.76 15.29L213.76 15.29L213.76 15.29Q212.85 16.11 211.30 16.11L211.30 16.11L211.30 16.11Q209.90 16.11 208.96 15.51L208.96 15.51L208.96 15.51Q208.02 14.91 208.02 14.38ZM218.03 12.67L218.03 12.67L218.03 7.71L218.03 7.71Q218.03 5.95 218.94 5.13L218.94 5.13L218.94 5.13Q219.84 4.30 221.36 4.30L221.36 4.30L221.36 4.30Q222.88 4.30 223.78 5.13L223.78 5.13L223.78 5.13Q224.69 5.95 224.69 7.71L224.69 7.71L224.69 12.67L224.69 12.67Q224.69 14.45 223.78 15.27L223.78 15.27L223.78 15.27Q222.88 16.10 221.36 16.10L221.36 16.10L221.36 16.10Q219.84 16.10 218.94 15.27L218.94 15.27L218.94 15.27Q218.03 14.45 218.03 12.67ZM219.09 7.71L219.09 12.67L219.09 12.67Q219.09 15.12 221.36 15.12L221.36 15.12L221.36 15.12Q223.63 15.12 223.63 12.67L223.63 12.67L223.63 7.71L223.63 7.71Q223.63 5.28 221.36 5.28L221.36 5.28L221.36 5.28Q219.09 5.28 219.09 7.71L219.09 7.71ZM228.59 15.58L228.59 15.58L228.59 4.69L228.59 4.69Q228.59 4.30 229.12 4.30L229.12 4.30L229.12 4.30Q229.65 4.30 229.65 4.69L229.65 4.69L229.65 15.02L234.21 15.02L234.21 15.02Q234.56 15.02 234.56 15.50L234.56 15.50L234.56 15.50Q234.56 16 234.21 16L234.21 16L229.07 16L229.07 16Q228.88 16 228.74 15.89L228.74 15.89L228.74 15.89Q228.59 15.78 228.59 15.58ZM237.55 12.67L237.55 12.67L237.55 4.69L237.55 4.69Q237.55 4.30 238.08 4.30L238.08 4.30L238.08 4.30Q238.61 4.30 238.61 4.69L238.61 4.69L238.61 12.67L238.61 12.67Q238.61 13.89 239.21 14.50L239.21 14.50L239.21 14.50Q239.81 15.12 240.91 15.12L240.91 15.12L240.91 15.12Q242.02 15.12 242.62 14.50L242.62 14.50L242.62 14.50Q243.22 13.89 243.22 12.67L243.22 12.67L243.22 4.69L243.22 4.69Q243.22 4.30 243.74 4.30L243.74 4.30L243.74 4.30Q244.27 4.30 244.27 4.69L244.27 4.69L244.27 12.67L244.27 12.67Q244.27 14.45 243.35 15.27L243.35 15.27L243.35 15.27Q242.43 16.10 240.91 16.10L240.91 16.10L240.91 16.10Q239.39 16.10 238.47 15.27L238.47 15.27L238.47 15.27Q237.55 14.45 237.55 12.67ZM247.28 4.80L247.28 4.80L247.28 4.80Q247.28 4.61 247.38 4.46L247.38 4.46L247.38 4.46Q247.49 4.30 247.68 4.30L247.68 4.30L254.10 4.30L254.10 4.30Q254.29 4.30 254.39 4.45L254.39 4.45L254.39 4.45Q254.50 4.59 254.50 4.78L254.50 4.78L254.50 4.78Q254.50 4.99 254.39 5.14L254.39 5.14L254.39 5.14Q254.29 5.30 254.10 5.30L254.10 5.30L251.42 5.30L251.42 15.58L251.42 15.58Q251.42 15.78 251.26 15.89L251.26 15.89L251.26 15.89Q251.10 16 250.90 16L250.90 16L250.90 16Q250.67 16 250.52 15.89L250.52 15.89L250.52 15.89Q250.37 15.78 250.37 15.58L250.37 15.58L250.37 5.30L247.68 5.30L247.68 5.30Q247.50 5.30 247.39 5.15L247.39 5.15L247.39 5.15Q247.28 5.01 247.28 4.80ZM257.55 15.58L257.55 15.58L257.55 4.69L257.55 4.69Q257.55 4.30 258.08 4.30L258.08 4.30L258.08 4.30Q258.61 4.30 258.61 4.69L258.61 4.69L258.61 15.58L258.61 15.58Q258.61 15.78 258.45 15.89L258.45 15.89L258.45 15.89Q258.29 16 258.08 16L258.08 16L258.08 16Q257.86 16 257.70 15.89L257.70 15.89L257.70 15.89Q257.55 15.78 257.55 15.58ZM262.51 12.67L262.51 12.67L262.51 7.71L262.51 7.71Q262.51 5.95 263.42 5.13L263.42 5.13L263.42 5.13Q264.32 4.30 265.84 4.30L265.84 4.30L265.84 4.30Q267.36 4.30 268.26 5.13L268.26 5.13L268.26 5.13Q269.17 5.95 269.17 7.71L269.17 7.71L269.17 12.67L269.17 12.67Q269.17 14.45 268.26 15.27L268.26 15.27L268.26 15.27Q267.36 16.10 265.84 16.10L265.84 16.10L265.84 16.10Q264.32 16.10 263.42 15.27L263.42 15.27L263.42 15.27Q262.51 14.45 262.51 12.67ZM263.57 7.71L263.57 12.67L263.57 12.67Q263.57 15.12 265.84 15.12L265.84 15.12L265.84 15.12Q268.11 15.12 268.11 12.67L268.11 12.67L268.11 7.71L268.11 7.71Q268.11 5.28 265.84 5.28L265.84 5.28L265.84 5.28Q263.57 5.28 263.57 7.71L263.57 7.71ZM273.07 15.58L273.07 15.58L273.07 4.70L273.07 4.70Q273.07 4.30 273.60 4.30L273.60 4.30L273.60 4.30Q274.05 4.30 274.43 5.04L274.43 5.04L278.75 13.55L278.75 4.69L278.75 4.69Q278.75 4.30 279.28 4.30L279.28 4.30L279.28 4.30Q279.81 4.30 279.81 4.69L279.81 4.69L279.81 15.58L279.81 15.58Q279.81 15.78 279.65 15.89L279.65 15.89L279.65 15.89Q279.49 16 279.28 16L279.28 16L279.28 16Q278.88 16 278.58 15.39L278.58 15.39L274.13 6.74L274.13 15.58L274.13 15.58Q274.13 15.78 273.97 15.89L273.97 15.89L273.97 15.89Q273.81 16 273.60 16L273.60 16L273.60 16Q273.38 16 273.22 15.89L273.22 15.89L273.22 15.89Q273.07 15.78 273.07 15.58ZM283.20 14.38L283.20 14.38L283.20 14.38Q283.20 14.19 283.35 13.99L283.35 13.99L283.35 13.99Q283.50 13.79 283.68 13.79L283.68 13.79L283.68 13.79Q283.81 13.79 284.00 14L284.00 14L284.45 14.46L284.45 14.46Q284.69 14.72 285.21 14.92L285.21 14.92L285.21 14.92Q285.73 15.12 286.42 15.12L286.42 15.12L286.42 15.12Q287.55 15.12 288.18 14.55L288.18 14.55L288.18 14.55Q288.80 13.98 288.80 12.91L288.80 12.91L288.80 12.91Q288.80 12.19 288.50 11.69L288.50 11.69L288.50 11.69Q288.21 11.18 287.74 10.91L287.74 10.91L287.74 10.91Q287.30 10.62 286.72 10.40L286.72 10.40L285.57 9.95L285.57 9.95Q284.99 9.73 284.54 9.42L284.54 9.42L284.54 9.42Q284.08 9.10 283.78 8.54L283.78 8.54L283.78 8.54Q283.49 7.97 283.49 7.18L283.49 7.18L283.49 7.18Q283.49 6.35 283.80 5.75L283.80 5.75L283.80 5.75Q284.11 5.15 284.64 4.85L284.64 4.85L284.64 4.85Q285.17 4.54 285.72 4.41L285.72 4.41L285.72 4.41Q286.27 4.27 286.88 4.27L286.88 4.27L286.88 4.27Q287.86 4.27 288.71 4.55L288.71 4.55L288.71 4.55Q289.57 4.83 289.57 5.25L289.57 5.25L289.57 5.25Q289.57 5.44 289.43 5.64L289.43 5.64L289.43 5.64Q289.30 5.84 289.10 5.84L289.10 5.84L289.10 5.84Q289.01 5.84 288.74 5.69L288.74 5.69L288.74 5.69Q288.46 5.54 287.98 5.38L287.98 5.38L287.98 5.38Q287.49 5.23 286.86 5.23L286.86 5.23L286.86 5.23Q285.86 5.23 285.20 5.66L285.20 5.66L285.20 5.66Q284.54 6.10 284.54 7.09L284.54 7.09L284.54 7.09Q284.54 7.78 284.94 8.24L284.94 8.24L284.94 8.24Q285.33 8.70 285.92 8.91L285.92 8.91L285.92 8.91Q286.51 9.12 287.20 9.41L287.20 9.41L287.20 9.41Q287.89 9.70 288.48 10.02L288.48 10.02L288.48 10.02Q289.07 10.35 289.46 11.06L289.46 11.06L289.46 11.06Q289.86 11.78 289.86 12.82L289.86 12.82L289.86 12.82Q289.86 14.46 288.94 15.29L288.94 15.29L288.94 15.29Q288.03 16.11 286.48 16.11L286.48 16.11L286.48 16.11Q285.09 16.11 284.14 15.51L284.14 15.51L284.14 15.51Q283.20 14.91 283.20 14.38Z" fill="#3385D9"/></g></svg>